<?xml version="1.0" encoding="UTF-8"?>
<svg width="102px" height="36px" viewBox="0 0 102 36" version="1.1" xmlns="http://www.w3.org/2000/svg" xmlns:xlink="http://www.w3.org/1999/xlink">
    <title>Group</title>
    <defs>
        <linearGradient x1="50%" y1="0%" x2="50%" y2="98.6806163%" id="linearGradient-1">
            <stop stop-color="#772718" offset="0%"></stop>
            <stop stop-color="#8A3F2D" offset="100%"></stop>
        </linearGradient>
    </defs>
    <g id="Page-1" stroke="none" stroke-width="1" fill="none" fill-rule="evenodd">
        <g id="alma" transform="translate(-19, -17)">
            <g id="Group" transform="translate(11, 11)">
                <g transform="translate(8, 6)">
                    <path d="M24.4625166,0.2 C28.4177115,0.2 29.8547716,0.604748543 31.3014859,1.37845981 C32.7327833,2.14392606 33.8560739,3.26721666 34.6215402,4.69851411 C35.3952515,6.14522839 35.8,7.58228852 35.8,11.5374834 L35.8,24.4625166 C35.8,28.4177115 35.3952515,29.8547716 34.6215402,31.3014859 C33.8560739,32.7327833 32.7327833,33.8560739 31.3014859,34.6215402 C29.8547716,35.3952515 28.4177115,35.8 24.4625166,35.8 L11.5374834,35.8 C7.58228852,35.8 6.14522839,35.3952515 4.69851411,34.6215402 C3.26721666,33.8560739 2.14392606,32.7327833 1.37845981,31.3014859 C0.604748543,29.8547716 0.2,28.4177115 0.2,24.4625166 L0.2,11.5374834 C0.2,7.58228852 0.604748543,6.14522839 1.37845981,4.69851411 C2.14392606,3.26721666 3.26721666,2.14392606 4.69851411,1.37845981 C6.14522839,0.604748543 7.58228852,0.2 11.5374834,0.2 Z" id="Rectangle-4" stroke-opacity="0.125491696" stroke="#FFFFFF" stroke-width="0.4" fill="url(#linearGradient-1)"></path>
                    <path d="M29.7619245,18.2866297 C29.5402115,18.2173788 28.1646953,18.086844 27.4446874,17.9825251 C26.0807689,17.7847822 24.7252604,17.5414849 23.4316743,17.0417483 C22.1309667,16.539288 21.0299298,15.774941 20.3023257,14.5472191 C19.8105419,13.7174344 19.5004556,12.8117257 19.2849822,11.8770773 C19.0857864,11.013314 18.9354908,10.151185 18.745858,9.28503847 C18.7252398,9.19066119 18.6768821,9.04201355 18.5549365,9.00742217 C18.5537836,9.0070817 18.5524949,9.00694551 18.5512741,9.00667314 C18.5355392,9.00251945 18.5187869,9 18.5004748,9 C18.5003391,9 18.5002035,9 18.5,9 C18.4997965,9 18.4996609,9 18.4995252,9 C18.4812131,9 18.4644608,9.00251945 18.4487259,9.00667314 C18.4475051,9.00694551 18.4462164,9.0070817 18.4450635,9.00742217 C18.3231179,9.04201355 18.2747602,9.19066119 18.254142,9.28503847 C18.0645092,10.151185 17.9142136,11.013314 17.7150178,11.8770773 C17.4995444,12.8117257 17.1894581,13.7174344 16.6976743,14.5472191 C15.9700702,15.774941 14.8690333,16.539288 13.5683257,17.0417483 C12.2747396,17.5414849 10.9192311,17.7847822 9.55531262,17.9825251 C8.83530472,18.086844 7.45978851,18.2173788 7.23807545,18.2866297 C7.0178545,18.3554039 6.99933885,18.4319408 7,18.499966 C6.99933885,18.5680592 7.0178545,18.6445961 7.23807545,18.7133703 C7.45978851,18.7826212 8.83530472,18.9130879 9.55531262,19.0174749 C10.9192311,19.2152178 12.2747396,19.4585151 13.5683257,19.9582517 C14.8690333,20.460712 15.9700702,21.224991 16.6976743,22.4527809 C17.1894581,23.2825656 17.4995444,24.1882062 17.7150178,25.1229227 C17.9142136,25.9866179 18.0645092,26.848815 18.254142,27.7149615 C18.2747602,27.8092707 18.3231179,27.9579864 18.4450635,27.9925097 C18.4462164,27.9928502 18.4475051,27.9929864 18.4487259,27.9933269 C18.4644608,27.9974805 18.4812131,28 18.4995252,28 C18.4996609,28 18.4997965,28 18.5,28 C18.5002035,28 18.5003391,28 18.5004748,28 C18.5187869,28 18.5355392,27.9974805 18.5512741,27.9933269 C18.5524949,27.9929864 18.5537836,27.9928502 18.5549365,27.9925097 C18.6768821,27.9579864 18.7252398,27.8092707 18.745858,27.7149615 C18.9354908,26.848815 19.0857864,25.9866179 19.2849822,25.1229227 C19.5004556,24.1882062 19.8105419,23.2825656 20.3023257,22.4527809 C21.0299298,21.224991 22.1309667,20.460712 23.4316743,19.9582517 C24.7252604,19.4585151 26.0807689,19.2152178 27.4446874,19.0174749 C28.1646953,18.9130879 29.5402115,18.7826212 29.7619245,18.7133703 C29.9821455,18.6445961 30.0006612,18.5680592 30,18.499966 C30.0006612,18.4319408 29.9821455,18.3554039 29.7619245,18.2866297" id="Fill-1" stroke-opacity="0.7421875" stroke="#FFFFFF" stroke-width="0.3" fill-opacity="0.67" fill="#FFFFFF"></path>
                    <path d="M59.0526129,25.6923077 C58.4405714,24.2165879 57.8041873,22.6287423 57.1434606,20.9287709 L49.6737718,20.9287709 C49.0130451,22.6287423 48.376661,24.2165879 47.7646195,25.6923077 L45,25.6923077 L51.2595158,10.1538462 L55.5577166,10.1538462 L61.8172324,25.6923077 L59.0526129,25.6923077 Z M56.7052945,19.8002793 C55.6133567,16.9573485 54.5248965,14.0059089 53.4399138,10.9459605 L53.3877511,10.9568113 C52.3375435,13.9299527 51.2490832,16.8777754 50.1223704,19.8002793 L56.7052945,19.8002793 Z M63.156658,25.6923077 L63.156658,10 L65.3890339,10 L65.3890339,25.6923077 L63.156658,25.6923077 Z M70.1118881,14.6637988 L69.7164089,19.1960627 L69.7996677,19.1960627 C69.9939382,18.2032811 70.3217696,17.3381942 70.783162,16.600802 C71.2445544,15.8634099 71.8048166,15.2968769 72.4639486,14.9012031 C73.1230806,14.5055292 73.8342493,14.3076923 74.5974548,14.3076923 C75.8255217,14.3076923 76.7413683,14.7357395 77.3449944,15.5918338 C77.9486206,16.4479281 78.2434954,17.6493377 78.2296189,19.1960627 L78.3232851,19.1960627 C78.5453085,18.088176 78.8956892,17.1691336 79.3744271,16.4389355 C79.8531651,15.7087374 80.4134273,15.1709807 81.0552137,14.8256653 C81.6970001,14.48035 82.3890887,14.3076923 83.1314795,14.3076923 C84.1513995,14.3076923 84.9527653,14.5343055 85.5355767,14.9875319 C86.1183881,15.4407583 86.5277438,16.0918216 86.7636437,16.9407218 C86.9995435,17.7896221 87.1174935,18.8579414 87.1174935,20.1456799 L87.1174935,25.6923077 L84.9319506,25.6923077 L84.9319506,20.2643821 C84.9250123,18.9838376 84.7099271,18.0576012 84.286695,17.4856726 C83.8634629,16.9137441 83.1973927,16.6277798 82.2884844,16.6277798 C81.6640435,16.6277798 81.0690902,16.7968404 80.5036243,17.1349617 C79.9381584,17.473083 79.4750315,17.9586827 79.1142435,18.5917608 C78.7534554,19.224839 78.5591849,19.9694252 78.531432,20.8255195 L78.531432,25.6923077 L76.3458891,25.6923077 L76.3458891,20.2643821 C76.3458891,18.9838376 76.1360076,18.0576012 75.7162446,17.4856726 C75.2964816,16.9137441 74.6321459,16.6277798 73.7232376,16.6277798 C73.0779821,16.6277798 72.4674177,16.8094301 71.8915445,17.1727306 C71.3156713,17.5360311 70.8490752,18.0576012 70.4917563,18.7374408 C70.1344374,19.4172803 69.9557779,20.2104265 69.9557779,21.1168793 L69.9557779,25.6923077 L67.770235,25.6923077 L67.770235,14.6637988 L70.1118881,14.6637988 Z M101.183286,23.7130748 C101.322895,23.7130748 101.47123,23.6987592 101.62829,23.6701279 C101.785351,23.6414966 101.909254,23.6057074 102,23.5627605 L102,25.592004 C101.839449,25.6993713 101.602114,25.7924231 101.287993,25.8711591 C100.973872,25.9498952 100.659751,25.9892633 100.34563,25.9892633 C99.9128412,25.9892633 99.5707985,25.9033694 99.3195017,25.7315815 C99.068205,25.5597937 98.886713,25.2895858 98.7750255,24.9209578 C98.6633381,24.5523298 98.6074944,24.0566504 98.6074944,23.4339196 C98.6074944,22.8684514 98.6423967,22.2385628 98.7122014,21.5442537 L98.6179651,21.5442537 C98.3806293,22.4962445 97.9740173,23.3068682 97.398129,23.9761249 C96.8222407,24.6453816 96.1294296,25.1500082 95.3196958,25.4900049 C94.5099619,25.8300016 93.6304234,26 92.6810803,26 C91.9271902,26 91.2553205,25.8836853 90.6654713,25.651056 C90.075622,25.4184267 89.6096761,25.0676932 89.2676333,24.5988557 C88.9255906,24.1300181 88.7545692,23.5556026 88.7545692,22.8756092 C88.7545692,22.0309858 89.066945,21.3670975 89.6916965,20.8839443 C90.3164481,20.4007911 91.2082024,20.0607944 92.3669594,19.8639542 C93.5257165,19.667114 94.977653,19.5686939 96.7227691,19.5686939 C97.0648118,19.5686939 97.6127783,19.5758518 98.3666684,19.5901674 L98.3666684,19.321749 C98.3666684,18.3983895 98.0926852,17.6843964 97.5447187,17.1797697 C96.9967523,16.675143 96.1573515,16.4228297 95.0265163,16.4228297 C94.4331768,16.4228297 93.8677592,16.5123025 93.3302635,16.6912481 C92.7927677,16.8701938 92.3529985,17.1457701 92.0109557,17.517977 C91.668913,17.8901839 91.4978916,18.3482847 91.4978916,18.8922794 C91.4978916,19.0211203 91.5083623,19.1606979 91.5293037,19.3110122 L89.9796407,19.031857 C89.8888946,18.7097549 89.8435216,18.3840738 89.8435216,18.0548139 C89.8435216,17.3390313 90.0564258,16.6966165 90.4822341,16.1275694 C90.9080424,15.5585223 91.5240684,15.1129477 92.330312,14.7908455 C93.1365556,14.4687434 94.0806634,14.3076923 95.1626353,14.3076923 C96.8170053,14.3076923 98.1310777,14.7067411 99.1048525,15.5048386 C100.078627,16.3029361 100.565515,17.5609239 100.565515,19.278802 L100.565515,22.5535071 C100.565515,22.9543453 100.612633,23.2478162 100.706869,23.4339196 C100.801105,23.6200231 100.959911,23.7130748 101.183286,23.7130748 Z M93.5606188,23.9063361 C94.4122354,23.9063361 95.1992828,23.7703374 95.9217608,23.49834 C96.6442388,23.2263427 97.2271076,22.8111888 97.6703671,22.2528784 C98.1136266,21.6945681 98.345727,21.0074168 98.3666684,20.1914247 C97.8361531,20.1771091 97.4522276,20.1699513 97.2148918,20.1699513 C95.1696158,20.1699513 93.609482,20.3506864 92.5344906,20.7121565 C91.4594991,21.0736267 90.9220033,21.5872007 90.9220033,22.2528784 C90.9220033,22.7897153 91.1593391,23.1995008 91.6340107,23.4822349 C92.1086822,23.764969 92.7508849,23.9063361 93.5606188,23.9063361 Z" id="Combined-Shape" fill="#FFFFFF" fill-rule="nonzero"></path>
                </g>
            </g>
        </g>
    </g>
</svg>